<mxfile host="app.diagrams.net" modified="2021-08-15T10:40:09.032Z" agent="5.0 (Windows NT 10.0; Win64; x64) AppleWebKit/537.36 (KHTML, like Gecko) Chrome/92.0.4515.131 Safari/537.36" etag="-fhLVO8oxkZcyQmxAEHL" version="14.9.6" type="github">
  <diagram id="0NTTmh2iyiqxCogNluD7" name="Page-1">
    <mxGraphModel dx="1182" dy="732" grid="1" gridSize="10" guides="1" tooltips="1" connect="1" arrows="1" fold="1" page="1" pageScale="1" pageWidth="827" pageHeight="1169" math="0" shadow="0">
      <root>
        <mxCell id="0" />
        <mxCell id="1" parent="0" />
        <mxCell id="VKW26C8YoAphQuPjR-Y2-3" value="File" style="edgeStyle=orthogonalEdgeStyle;rounded=0;orthogonalLoop=1;jettySize=auto;html=1;" edge="1" parent="1" source="VKW26C8YoAphQuPjR-Y2-1" target="VKW26C8YoAphQuPjR-Y2-2">
          <mxGeometry relative="1" as="geometry" />
        </mxCell>
        <mxCell id="VKW26C8YoAphQuPjR-Y2-1" value="Algotech" style="rounded=1;whiteSpace=wrap;html=1;fillColor=#f5f5f5;strokeColor=#666666;fontColor=#333333;" vertex="1" parent="1">
          <mxGeometry x="20" y="320" width="70" height="60" as="geometry" />
        </mxCell>
        <mxCell id="VKW26C8YoAphQuPjR-Y2-7" value="" style="edgeStyle=orthogonalEdgeStyle;rounded=0;orthogonalLoop=1;jettySize=auto;html=1;" edge="1" parent="1" source="VKW26C8YoAphQuPjR-Y2-2" target="VKW26C8YoAphQuPjR-Y2-6">
          <mxGeometry relative="1" as="geometry" />
        </mxCell>
        <mxCell id="VKW26C8YoAphQuPjR-Y2-10" value="" style="edgeStyle=orthogonalEdgeStyle;rounded=0;orthogonalLoop=1;jettySize=auto;html=1;" edge="1" parent="1" source="VKW26C8YoAphQuPjR-Y2-2" target="VKW26C8YoAphQuPjR-Y2-9">
          <mxGeometry relative="1" as="geometry" />
        </mxCell>
        <mxCell id="VKW26C8YoAphQuPjR-Y2-2" value="EMS&lt;br&gt;Mediation Server" style="shape=process;whiteSpace=wrap;html=1;backgroundOutline=1;fillColor=#f5f5f5;strokeColor=#666666;fontColor=#333333;" vertex="1" parent="1">
          <mxGeometry x="140" y="320" width="120" height="60" as="geometry" />
        </mxCell>
        <mxCell id="VKW26C8YoAphQuPjR-Y2-4" value="" style="curved=1;endArrow=classic;html=1;exitX=0.108;exitY=1.033;exitDx=0;exitDy=0;exitPerimeter=0;" edge="1" parent="1" source="VKW26C8YoAphQuPjR-Y2-2">
          <mxGeometry width="50" height="50" relative="1" as="geometry">
            <mxPoint x="200" y="470" as="sourcePoint" />
            <mxPoint x="240" y="382" as="targetPoint" />
            <Array as="points">
              <mxPoint x="160" y="450" />
              <mxPoint x="190" y="500" />
              <mxPoint x="230" y="450" />
            </Array>
          </mxGeometry>
        </mxCell>
        <mxCell id="VKW26C8YoAphQuPjR-Y2-5" value="Duplicate Q" style="edgeLabel;html=1;align=center;verticalAlign=middle;resizable=0;points=[];" vertex="1" connectable="0" parent="VKW26C8YoAphQuPjR-Y2-4">
          <mxGeometry x="0.1175" y="-2" relative="1" as="geometry">
            <mxPoint x="-3" y="3" as="offset" />
          </mxGeometry>
        </mxCell>
        <mxCell id="VKW26C8YoAphQuPjR-Y2-24" value="" style="edgeStyle=orthogonalEdgeStyle;rounded=0;orthogonalLoop=1;jettySize=auto;html=1;" edge="1" parent="1" source="VKW26C8YoAphQuPjR-Y2-6" target="VKW26C8YoAphQuPjR-Y2-23">
          <mxGeometry relative="1" as="geometry" />
        </mxCell>
        <mxCell id="VKW26C8YoAphQuPjR-Y2-26" value="Ris Topic" style="edgeLabel;html=1;align=center;verticalAlign=middle;resizable=0;points=[];" vertex="1" connectable="0" parent="VKW26C8YoAphQuPjR-Y2-24">
          <mxGeometry x="-0.1673" y="3" relative="1" as="geometry">
            <mxPoint as="offset" />
          </mxGeometry>
        </mxCell>
        <mxCell id="VKW26C8YoAphQuPjR-Y2-25" value="Ris Topic" style="edgeStyle=orthogonalEdgeStyle;rounded=0;orthogonalLoop=1;jettySize=auto;html=1;" edge="1" parent="1" source="VKW26C8YoAphQuPjR-Y2-6" target="VKW26C8YoAphQuPjR-Y2-18">
          <mxGeometry relative="1" as="geometry" />
        </mxCell>
        <mxCell id="VKW26C8YoAphQuPjR-Y2-6" value="" style="shape=cylinder3;whiteSpace=wrap;html=1;boundedLbl=1;backgroundOutline=1;size=15;rotation=90;align=center;verticalAlign=middle;fillColor=#dae8fc;strokeColor=#6c8ebf;" vertex="1" parent="1">
          <mxGeometry x="335" y="295" width="60" height="110" as="geometry" />
        </mxCell>
        <mxCell id="VKW26C8YoAphQuPjR-Y2-8" value="KAFKA" style="text;html=1;strokeColor=none;fillColor=none;align=center;verticalAlign=middle;whiteSpace=wrap;rounded=0;" vertex="1" parent="1">
          <mxGeometry x="335" y="340" width="40" height="20" as="geometry" />
        </mxCell>
        <mxCell id="VKW26C8YoAphQuPjR-Y2-13" value="" style="edgeStyle=orthogonalEdgeStyle;rounded=0;orthogonalLoop=1;jettySize=auto;html=1;" edge="1" parent="1" source="VKW26C8YoAphQuPjR-Y2-9" target="VKW26C8YoAphQuPjR-Y2-12">
          <mxGeometry relative="1" as="geometry" />
        </mxCell>
        <mxCell id="VKW26C8YoAphQuPjR-Y2-9" value="Windows Service&lt;br&gt;Listener" style="rounded=0;whiteSpace=wrap;html=1;verticalAlign=middle;fillColor=#f5f5f5;strokeColor=#666666;fontColor=#333333;" vertex="1" parent="1">
          <mxGeometry x="140" y="220" width="120" height="60" as="geometry" />
        </mxCell>
        <mxCell id="VKW26C8YoAphQuPjR-Y2-15" value="" style="edgeStyle=orthogonalEdgeStyle;rounded=0;orthogonalLoop=1;jettySize=auto;html=1;" edge="1" parent="1" source="VKW26C8YoAphQuPjR-Y2-12" target="VKW26C8YoAphQuPjR-Y2-14">
          <mxGeometry relative="1" as="geometry" />
        </mxCell>
        <mxCell id="VKW26C8YoAphQuPjR-Y2-12" value="File landing zone" style="shape=note;whiteSpace=wrap;html=1;backgroundOutline=1;darkOpacity=0.05;verticalAlign=middle;fillColor=#f5f5f5;strokeColor=#666666;fontColor=#333333;" vertex="1" parent="1">
          <mxGeometry x="160" y="80" width="80" height="100" as="geometry" />
        </mxCell>
        <mxCell id="VKW26C8YoAphQuPjR-Y2-17" value="" style="edgeStyle=orthogonalEdgeStyle;rounded=0;orthogonalLoop=1;jettySize=auto;html=1;" edge="1" parent="1" source="VKW26C8YoAphQuPjR-Y2-14" target="VKW26C8YoAphQuPjR-Y2-16">
          <mxGeometry relative="1" as="geometry" />
        </mxCell>
        <mxCell id="VKW26C8YoAphQuPjR-Y2-14" value="Talend" style="shape=process;whiteSpace=wrap;html=1;backgroundOutline=1;verticalAlign=middle;fillColor=#f5f5f5;strokeColor=#666666;fontColor=#333333;" vertex="1" parent="1">
          <mxGeometry x="295" y="100" width="120" height="60" as="geometry" />
        </mxCell>
        <mxCell id="VKW26C8YoAphQuPjR-Y2-16" value="ONLINE&lt;br&gt;DB" style="shape=cylinder3;whiteSpace=wrap;html=1;boundedLbl=1;backgroundOutline=1;size=15;verticalAlign=middle;fillColor=#f5f5f5;strokeColor=#666666;fontColor=#333333;" vertex="1" parent="1">
          <mxGeometry x="490" y="90" width="60" height="80" as="geometry" />
        </mxCell>
        <mxCell id="VKW26C8YoAphQuPjR-Y2-32" value="" style="edgeStyle=orthogonalEdgeStyle;rounded=0;orthogonalLoop=1;jettySize=auto;html=1;" edge="1" parent="1" source="VKW26C8YoAphQuPjR-Y2-18" target="VKW26C8YoAphQuPjR-Y2-29">
          <mxGeometry relative="1" as="geometry" />
        </mxCell>
        <mxCell id="VKW26C8YoAphQuPjR-Y2-18" value="SPARK&lt;br&gt;Consumer" style="shape=process;whiteSpace=wrap;html=1;backgroundOutline=1;verticalAlign=middle;" vertex="1" parent="1">
          <mxGeometry x="395" y="230" width="85" height="40" as="geometry" />
        </mxCell>
        <mxCell id="VKW26C8YoAphQuPjR-Y2-28" value="" style="edgeStyle=orthogonalEdgeStyle;rounded=0;orthogonalLoop=1;jettySize=auto;html=1;" edge="1" parent="1" source="VKW26C8YoAphQuPjR-Y2-23" target="VKW26C8YoAphQuPjR-Y2-27">
          <mxGeometry relative="1" as="geometry" />
        </mxCell>
        <mxCell id="VKW26C8YoAphQuPjR-Y2-23" value="SPARK&lt;br&gt;Consumer" style="shape=process;whiteSpace=wrap;html=1;backgroundOutline=1;verticalAlign=middle;" vertex="1" parent="1">
          <mxGeometry x="395" y="430" width="85" height="40" as="geometry" />
        </mxCell>
        <mxCell id="VKW26C8YoAphQuPjR-Y2-27" value="Data Lake" style="shape=tape;whiteSpace=wrap;html=1;strokeWidth=2;size=0.19;verticalAlign=middle;" vertex="1" parent="1">
          <mxGeometry x="387.5" y="520" width="100" height="65" as="geometry" />
        </mxCell>
        <mxCell id="VKW26C8YoAphQuPjR-Y2-35" value="" style="edgeStyle=orthogonalEdgeStyle;rounded=0;orthogonalLoop=1;jettySize=auto;html=1;" edge="1" parent="1" source="VKW26C8YoAphQuPjR-Y2-29" target="VKW26C8YoAphQuPjR-Y2-34">
          <mxGeometry relative="1" as="geometry" />
        </mxCell>
        <mxCell id="VKW26C8YoAphQuPjR-Y2-29" value="MongoDB" style="strokeWidth=2;html=1;shape=mxgraph.flowchart.database;whiteSpace=wrap;verticalAlign=middle;" vertex="1" parent="1">
          <mxGeometry x="540" y="300" width="70" height="60" as="geometry" />
        </mxCell>
        <mxCell id="VKW26C8YoAphQuPjR-Y2-34" value="Dashboard&lt;br&gt;Angular" style="ellipse;whiteSpace=wrap;html=1;verticalAlign=middle;" vertex="1" parent="1">
          <mxGeometry x="680" y="290" width="120" height="80" as="geometry" />
        </mxCell>
      </root>
    </mxGraphModel>
  </diagram>
</mxfile>
